<svg xmlns="http://www.w3.org/2000/svg" width="28" height="28" viewBox="0 0 28 28"><defs><clipPath id="wf2wa"><path fill="#fff" d="M0 28V0h28v28zm1-14c0 7.18 5.82 13 13 13s13-5.82 13-13S21.18 1 14 1 1 6.82 1 14z"/></clipPath></defs><g><g><path fill="#efefef" d="M14 1c7.18 0 13 5.82 13 13s-5.82 13-13 13S1 21.18 1 14 6.82 1 14 1z"/><path fill="none" stroke="#ef4836" stroke-linecap="round" stroke-linejoin="round" stroke-miterlimit="50" stroke-width="2" d="M14 1c7.18 0 13 5.82 13 13s-5.82 13-13 13S1 21.18 1 14 6.82 1 14 1z" clip-path="url(&quot;#wf2wa&quot;)"/></g><g><path fill="#ef4836" d="M11.646 8.353l.708-.707 6 6-.708.707zm6.624 5.636l.74.74-6.28 6.28-.74-.74z"/></g></g></svg>